<svg xmlns="http://www.w3.org/2000/svg" viewBox="131.74 255.65 277.64 215.53"><g id="freepik--Shadow--inject-67"><path d="M382.888,459.788c0,6.293-56.222,11.394-125.576,11.394s-125.576-5.101-125.576-11.394,56.222-11.394,125.576-11.394,125.576,5.101,125.576,11.394Z" style="fill:#f5f5f5;"/></g><g id="freepik--Graduation_hat_3--inject-67"><g><path d="M186.595,330.45l-3.733,51.423s17.088,9.659,69.148,13.062c51.12,3.342,66.432-5.441,66.432-5.441l4.965-68.388-136.811,9.343Z" style="fill:#263238;"/><ellipse cx="250.745" cy="384.404" rx="38.664" ry="67.888" transform="translate(-151.65 605.126) rotate(-85.629)" style="fill:#263238;"/><path d="M248.813,410.36c-32.553-2.448-59.864-22.499-65.084-40.43,0,0-.481,6.63-.681,9.384-1.546,21.298,27.509,40.842,64.897,43.653,37.388,2.811,68.95-12.175,70.497-33.473,.2-2.754,.609-8.393,.609-8.393-7.753,16.955-37.685,31.706-70.238,29.258Z" style="fill:#0FA4AF;"/><path d="M185.104,350.997s40.726,72.158,117.053,61.325c0,0,12.429-6.73,15.385-17.958l.77-3.075,2.965-40.845-135.429-9.694-.744,10.246Z" style="opacity:.2;"/><polygon points="149.418 322.183 148.787 330.873 246.804 410.084 359.326 346.703 359.957 338.013 149.418 322.183" style="fill:#263238;"/><polygon points="149.418 322.183 148.787 330.873 246.804 410.084 359.326 346.703 359.957 338.013 149.418 322.183" style="opacity:.4;"/><path d="M149.418,322.183c.405,1.626,98.3,78.724,98.3,78.724l112.24-62.894-100.431-74.574-110.109,58.744Z" style="fill:#263238;"/><path d="M266.3,327.642c-.335,4.61-6.605,7.895-14.006,7.339-7.4-.556-13.128-4.744-12.793-9.354,.334-4.61,6.605-7.895,14.005-7.339,7.4,.556,13.128,4.744,12.794,9.354Z" style="opacity:.4;"/><path d="M254.425,326.634c.753-10.157,2.791-20.986,9.399-29.013,7.307-8.876,19.461-13.456,30.554-14.409,5.856-.503,11.777-.051,17.466,1.467,6.285,1.677,12.137,4.608,18.165,7.012,5.583,2.226,11.6,4.15,17.662,4.046,2.746-.047,5.72-.492,8.101-1.97,2.216-1.376,3.823-3.48,5.571-5.383,2.197-2.393,4.844-4.363,7.194-6.602,2.316-2.206,4.538-4.516,6.626-6.948,4.382-5.106,8.146-10.726,11.062-16.825,.855-1.789-1.774-3.364-2.633-1.567-5.23,10.937-13.172,19.886-22.25,27.674-2.082,1.786-3.674,4.042-5.697,5.885-2.093,1.907-4.799,2.526-7.551,2.621-6.087,.212-12.121-1.845-17.708-4.098-6.133-2.473-12.107-5.45-18.544-7.047-5.692-1.412-11.627-1.873-17.464-1.369-11.237,.97-23.438,5.307-31.363,13.782-8.21,8.78-10.772,21.038-11.639,32.744-.148,1.992,2.903,1.983,3.05,0h0Z" style="fill:#0FA4AF;"/><path d="M360.591,294.501c-.276,3.798-3.525,6.65-7.257,6.369-3.732-.281-6.534-3.587-6.258-7.385,.276-3.798,3.525-6.65,7.257-6.369,3.732,.281,6.534,3.587,6.258,7.385Z" style="fill:#0FA4AF;"/><path d="M356.843,297.494c16.189,3.364,33.145,1.272,48.083-5.909,1.774-.852,.227-3.529-1.539-2.68-14.152,6.803-30.4,8.782-45.732,5.596-1.916-.398-2.735,2.593-.811,2.993h0Z" style="fill:#0FA4AF;"/><path d="M355.208,296.177c17.28,1.651,34.965-4.881,47.252-17.336,1.392-1.411-.764-3.606-2.156-2.195-11.764,11.924-28.578,18.006-45.096,16.427-1.953-.187-1.941,2.918,0,3.104h0Z" style="fill:#0FA4AF;"/><path d="M356.694,293.911c15.973-6.153,34.49-13.978,39.927-32.203,.571-1.915-2.371-2.734-2.941-.825-5.083,17.04-22.919,24.304-37.796,30.035-1.818,.7-1.03,3.702,.811,2.993h0Z" style="fill:#0FA4AF;"/><path d="M356.962,294.929c14.955-.607,29.43-7.53,39.591-18.695,2.858-3.14,5.366-6.61,7.453-10.325,.976-1.737-1.658-3.302-2.633-1.566-7.012,12.479-18.987,21.749-32.576,25.591-3.867,1.093-7.825,1.729-11.835,1.892-1.956,.079-1.966,3.183,0,3.104h0Z" style="fill:#0FA4AF;"/><path d="M358.467,295.133c8.278,4.066,17.908,3.889,26.514,.958,8.938-3.045,16.666-8.706,23.881-14.736,1.518-1.268-.651-3.453-2.156-2.195-12.575,10.51-30.171,21.411-46.699,13.293-1.76-.864-3.308,1.811-1.539,2.68h0Z" style="fill:#0FA4AF;"/><path d="M357.058,293.664c13.481-7.042,24.962-17.741,33.098-30.745,1.057-1.69-1.581-3.248-2.634-1.566-7.866,12.572-18.978,22.827-32.004,29.631-1.747,.912-.205,3.591,1.539,2.68h0Z" style="fill:#0FA4AF;"/><path d="M360.591,294.501c-.276,3.798-3.525,6.65-7.257,6.369-3.732-.281-6.534-3.587-6.258-7.385,.276-3.798,3.525-6.65,7.257-6.369,3.732,.281,6.534,3.587,6.258,7.385Z" style="opacity:.3;"/><path d="M261.018,267.848c-.742-2.24-103.924,52.218-103.613,55.383s64.037,53.86,66.246,53.86c7.447,0-1.866-32.337,8.086-58.924,9.953-26.587,32.079-41.871,29.28-50.319Z" style="fill:#fff; opacity:.1;"/></g></g></svg>